<?xml version="1.0" encoding="utf-8"?>
<!-- Generator: Adobe Illustrator 16.0.0, SVG Export Plug-In . SVG Version: 6.00 Build 0)  -->
<!DOCTYPE svg PUBLIC "-//W3C//DTD SVG 1.1//EN" "http://www.w3.org/Graphics/SVG/1.1/DTD/svg11.dtd">
<svg version="1.1" id="Layer_1" xmlns="http://www.w3.org/2000/svg" xmlns:xlink="http://www.w3.org/1999/xlink" x="0px" y="0px"
	 width="700px" height="700px" viewBox="0 0 700 700" enable-background="new 0 0 700 700" xml:space="preserve">
<rect x="-6" y="-11.9" fill-rule="evenodd" clip-rule="evenodd" fill="#324968" width="711.2" height="576.9"/>
<radialGradient id="SVGID_1_" cx="10.25" cy="-7.0498" r="368.475" gradientTransform="matrix(0.9862 0 0 1.1942 -9.994507e-002 2.4498)" gradientUnits="userSpaceOnUse">
	<stop  offset="0" style="stop-color:#FFFFFF;stop-opacity:0.251"/>
	<stop  offset="0.4745" style="stop-color:#FFFFFF;stop-opacity:7.450981e-002"/>
	<stop  offset="1" style="stop-color:#FFFFFF;stop-opacity:0"/>
</radialGradient>
<rect x="-6" y="-11.9" fill-rule="evenodd" clip-rule="evenodd" fill="url(#SVGID_1_)" width="711.2" height="576.9"/>
<linearGradient id="SVGID_2_" gradientUnits="userSpaceOnUse" x1="354.5479" y1="179.1152" x2="354.7198" y2="342.3902" gradientTransform="matrix(0.9862 0 0 0.5082 -9.994507e-002 365.5998)">
	<stop  offset="0" style="stop-color:#2D4462;stop-opacity:0"/>
	<stop  offset="1" style="stop-color:#1F3752"/>
</linearGradient>
<rect x="-6" y="359.5" fill-rule="evenodd" clip-rule="evenodd" fill="url(#SVGID_2_)" width="711.2" height="245.5"/>
<radialGradient id="SVGID_3_" cx="357.1504" cy="359.9004" r="452.5625" gradientTransform="matrix(0.9862 0 0 0.3264 -9.994507e-002 551.7002)" gradientUnits="userSpaceOnUse">
	<stop  offset="0" style="stop-color:#CD8A43"/>
	<stop  offset="0.4314" style="stop-color:#B97B3B"/>
	<stop  offset="1" style="stop-color:#734820"/>
</radialGradient>
<rect x="-6" y="547.8" fill-rule="evenodd" clip-rule="evenodd" fill="url(#SVGID_3_)" width="711.2" height="157.7"/>
<g>
	<g>
		<linearGradient id="SVGID_4_" gradientUnits="userSpaceOnUse" x1="331.8008" y1="279.7305" x2="411.0954" y2="183.0215">
			<stop  offset="1.568628e-002" style="stop-color:#526F7A"/>
			<stop  offset="9.411765e-002" style="stop-color:#778991"/>
			<stop  offset="0.2078" style="stop-color:#EDEFEF"/>
			<stop  offset="0.349" style="stop-color:#878A93"/>
			<stop  offset="0.4902" style="stop-color:#B6B6C0"/>
			<stop  offset="1" style="stop-color:#54595F"/>
		</linearGradient>
		<path fill-rule="evenodd" clip-rule="evenodd" fill="url(#SVGID_4_)" d="M405,242.9c-0.1,6.2-0.8,10.8-2.2,13.9
			c-1.8,4.1-6.8,8.4-15.1,12.9c-5.6,3-9.8,6.1-12.6,9.1c-1.4,1.5-2.5,3-3.3,4.5c-1.3,2.5-2.8,4.4-4.8,5.8h-14.9
			c-2-1.4-3.7-3.4-5-5.9c-2.3-4.6-7.6-9.1-15.9-13.6c-8.3-4.5-13.3-8.8-15-12.9c-1.7-4-2.4-10.6-2-19.8l90.7,0.8
			C404.9,239.5,405,241.2,405,242.9z"/>
	</g>
	<g>
		<g>
			
				<linearGradient id="SVGID_5_" gradientUnits="userSpaceOnUse" x1="-383.6055" y1="281.4775" x2="-372.6824" y2="281.4775" gradientTransform="matrix(-0.3457 -0.9384 0.9384 -0.3457 -3.476143e-004 -3.197789e-004)">
				<stop  offset="0" style="stop-color:#666C7A"/>
				<stop  offset="1" style="stop-color:#494E61"/>
			</linearGradient>
			<path fill-rule="evenodd" clip-rule="evenodd" fill="url(#SVGID_5_)" d="M394.7,262.9l-0.1-0.1l-3.4-9.9c0,0,0.1,0,0.1,0
				c0.8,0,1.5,0.1,2.2,0.4c0.6,0.3,1.2,0.7,1.8,1.3c1.1,1.1,1.7,2.4,1.7,3.9c0,0,0,0.1,0,0.2c0,1.4-0.6,2.7-1.7,3.8
				C395.1,262.5,394.9,262.7,394.7,262.9z"/>
			
				<linearGradient id="SVGID_6_" gradientUnits="userSpaceOnUse" x1="-390.4136" y1="268.1694" x2="-384.2345" y2="268.1694" gradientTransform="matrix(-0.3786 -0.9255 0.9255 -0.3786 -3.144741e-004 6.107092e-004)">
				<stop  offset="0" style="stop-color:#B9BDBE"/>
				<stop  offset="1" style="stop-color:#606068"/>
			</linearGradient>
			<path fill-rule="evenodd" clip-rule="evenodd" fill="url(#SVGID_6_)" d="M394.8,263.1l-0.1-0.3c0.2-0.1,0.4-0.3,0.6-0.5
				c1.1-1.1,1.6-2.3,1.7-3.8c0-0.1,0-0.2,0-0.2c0-1.6-0.6-2.9-1.7-3.9c-0.6-0.6-1.2-1-1.8-1.3c-0.7-0.2-1.4-0.4-2.2-0.4
				c-0.1,0-0.1,0-0.1,0l-0.1-0.1c0.3,0,0.6-0.1,0.9-0.1c1.6,0,2.9,0.6,4,1.6c1.1,1.1,1.6,2.4,1.6,3.9c0,1.6-0.5,2.9-1.6,4
				c-0.2,0.2-0.5,0.5-0.9,0.8l0,0L394.8,263.1L394.8,263.1z"/>
			
				<linearGradient id="SVGID_7_" gradientUnits="userSpaceOnUse" x1="-462.8721" y1="97.0146" x2="-457.6395" y2="97.0146" gradientTransform="matrix(-0.7071 -0.7071 0.7071 -0.7071 2.086163e-005 -3.801584e-004)">
				<stop  offset="0" style="stop-color:#696E74"/>
				<stop  offset="1" style="stop-color:#424041"/>
			</linearGradient>
			<path fill-rule="evenodd" clip-rule="evenodd" fill="url(#SVGID_7_)" d="M391.1,252.7l0-0.2c0.5-0.1,1-0.2,1.5-0.2
				c0.8,0,1.5,0.1,2.1,0.4c0.6,0.3,1.2,0.7,1.7,1.2c1.2,1.2,1.8,2.6,1.8,4.2c0,0.1,0,0.1,0,0.2c-0.1,1.4-0.6,2.6-1.6,3.6
				c-0.3,0.3-0.6,0.5-0.9,0.7c-0.2,0.2-0.4,0.3-0.7,0.4l-0.1,0l0,0c0.4-0.3,0.7-0.6,0.9-0.8c1.1-1.1,1.6-2.4,1.6-4
				c0-1.5-0.5-2.8-1.6-3.9c-1.1-1.1-2.4-1.6-4-1.6C391.7,252.6,391.4,252.7,391.1,252.7z"/>
			<path fill-rule="evenodd" clip-rule="evenodd" fill="#605D68" d="M391,252.5c-0.1,0-0.3,0.1-0.5,0.1c-0.1,0-0.1,0.1-0.1,0.1l0,0
				c-0.1,0-0.2,0-0.3,0.1l-0.2-0.4c0.6-0.2,1.3-0.4,2.1-0.4c0.1,0,0.1,0,0.2,0c0.9,0,1.7,0.2,2.4,0.6c-0.6-0.3-1.3-0.4-2.1-0.4
				C392.1,252.3,391.5,252.4,391,252.5z"/>
			<path fill-rule="evenodd" clip-rule="evenodd" fill="#646F71" d="M390.6,252.6l4,10.1l0.1,0.1c-0.1,0.1-0.2,0.1-0.2,0.1
				l-4.3-10.1v0c0-0.1,0.1-0.1,0.3-0.1l0,0C390.5,252.7,390.5,252.7,390.6,252.6z"/>
			<path fill-rule="evenodd" clip-rule="evenodd" fill="#B8C0C3" d="M391.2,252.8c-0.2,0-0.4,0-0.6-0.1c0.2-0.1,0.3-0.1,0.5-0.1
				L391.2,252.8L391.2,252.8z"/>
			<path fill-rule="evenodd" clip-rule="evenodd" fill="#38373C" d="M389,252.9c0.3-0.2,0.6-0.3,0.9-0.4l0.2,0.4l-0.1,0v0
				c0,0,0,0,0,0c-0.1,0-0.1,0.1-0.2,0.1c-0.3,0.2-0.5,0.3-0.6,0.3L389,252.9z"/>
			
				<linearGradient id="SVGID_8_" gradientUnits="userSpaceOnUse" x1="-395.4087" y1="257.3379" x2="-384.8155" y2="257.3379" gradientTransform="matrix(-0.3965 -0.918 0.9225 -0.3862 -1.174808e-004 4.084706e-004)">
				<stop  offset="0" style="stop-color:#3D3D47"/>
				<stop  offset="1" style="stop-color:#33363D"/>
			</linearGradient>
			<path fill-rule="evenodd" clip-rule="evenodd" fill="url(#SVGID_8_)" d="M390.2,252.9L390.2,252.9l4.3,10.1l0,0
				c-0.2,0.1-0.4,0.2-0.6,0.3c-0.1,0-0.3,0.1-0.4,0.1l-4.2-10c0.1-0.1,0.3-0.2,0.5-0.4c0.1-0.1,0.2-0.2,0.3-0.2
				C390.1,252.9,390.1,252.9,390.2,252.9L390.2,252.9L390.2,252.9z"/>
			<path fill-rule="evenodd" clip-rule="evenodd" fill="#52525A" d="M389.3,253.5c-0.1,0-0.2,0.1-0.3,0.1c-0.1,0.1-0.1,0.1-0.3,0.2
				v-0.2c0.1,0,0.1-0.1,0.2-0.1c0.1,0,0.2-0.1,0.3-0.2c0.2-0.1,0.4-0.2,0.6-0.3c0.1,0,0.1,0,0.2-0.1c-0.1,0-0.2,0.1-0.3,0.2
				C389.6,253.2,389.4,253.4,389.3,253.5z"/>
			<path fill-rule="evenodd" clip-rule="evenodd" fill="#AAB2B4" d="M394.6,262.7l-4-10.1c0.2,0.1,0.4,0.1,0.6,0.1L394.6,262.7z"/>
			<path fill-rule="evenodd" clip-rule="evenodd" fill="#6B6A70" d="M389,252.9l0.2,0.4c-0.1,0.1-0.2,0.1-0.3,0.2
				c0,0.1-0.1,0.1-0.2,0.1l-0.3-0.4c0.1-0.1,0.2-0.1,0.3-0.2C388.9,253,389,252.9,389,252.9z"/>
			<path fill-rule="evenodd" clip-rule="evenodd" fill="#B4B1AC" d="M388.8,253.6c-0.3,0.2-0.6,0.4-0.8,0.7
				c-0.3,0.2-0.5,0.5-0.7,0.9c-0.6,0.9-0.9,1.9-0.9,3.1c0,1.6,0.5,2.9,1.6,4c0.3,0.3,0.6,0.5,0.9,0.8c0.8,0.5,1.8,0.8,2.8,0.8
				c0.1,0,0.2,0,0.3,0c0.3,0,0.6,0,0.9,0c0.7-0.1,1.3-0.3,1.9-0.6v0l0.3,0.6c-0.9,0.5-1.9,0.7-2.9,0.7c-1.3,0-2.4-0.3-3.4-1
				c-0.1-0.1-0.2-0.2-0.4-0.3c-0.2-0.2-0.4-0.4-0.6-0.5c-1.2-1.2-1.8-2.7-1.8-4.3c0-1.3,0.3-2.5,1-3.4c0.2-0.3,0.5-0.6,0.8-1
				c0.3-0.3,0.5-0.5,0.8-0.7L388.8,253.6z"/>
			<path fill-rule="evenodd" clip-rule="evenodd" fill="#6A7579" d="M393,263.5l-4-9.9c0.1-0.1,0.2-0.1,0.3-0.1l4.2,10
				C393.3,263.5,393.2,263.5,393,263.5z"/>
			
				<linearGradient id="SVGID_9_" gradientUnits="userSpaceOnUse" x1="-459.7256" y1="92.2739" x2="-456.6143" y2="92.2739" gradientTransform="matrix(-0.7071 -0.7071 0.7071 -0.7071 4.172325e-005 -8.475780e-004)">
				<stop  offset="0" style="stop-color:#E8E8E0"/>
				<stop  offset="1" style="stop-color:#535258"/>
			</linearGradient>
			<path fill-rule="evenodd" clip-rule="evenodd" fill="url(#SVGID_9_)" d="M392.7,263.5l0.1,0.3c-0.3,0-0.6,0-0.9,0
				c-0.1,0-0.2,0-0.3,0c-1,0-2-0.3-2.8-0.8c-0.3-0.2-0.6-0.5-0.9-0.8c-1.1-1.1-1.6-2.4-1.6-4c0-1.2,0.3-2.2,0.9-3.1
				c0.2-0.3,0.4-0.6,0.7-0.9c0.2-0.3,0.5-0.5,0.8-0.7v0.2c0,0-0.1,0.1-0.1,0.2c-0.3,0.3-0.5,0.6-0.7,0.8c-0.6,0.9-1,2-1,3.2
				c0,1.5,0.5,2.8,1.7,3.9c0.3,0.3,0.6,0.5,0.9,0.7c0.8,0.6,1.8,0.9,2.9,0.9c0,0,0.1,0,0.1,0H392.7z"/>
			
				<linearGradient id="SVGID_10_" gradientUnits="userSpaceOnUse" x1="-422.897" y1="208.3628" x2="-415.6843" y2="208.3628" gradientTransform="matrix(-0.4985 -0.8669 0.8669 -0.4985 -5.871058e-005 -5.125999e-004)">
				<stop  offset="0" style="stop-color:#5F6170"/>
				<stop  offset="1" style="stop-color:#7C7C7C"/>
			</linearGradient>
			<path fill-rule="evenodd" clip-rule="evenodd" fill="url(#SVGID_10_)" d="M388.8,253.8l3.9,9.7h-0.1c-0.1,0-0.1,0-0.1,0
				c-1.1,0-2.1-0.3-2.9-0.9c-0.3-0.2-0.6-0.4-0.9-0.7c-1.1-1.1-1.7-2.4-1.7-3.9c0-1.2,0.3-2.2,1-3.2c0.2-0.3,0.4-0.5,0.7-0.8
				C388.7,253.9,388.8,253.8,388.8,253.8z"/>
			<path fill-rule="evenodd" clip-rule="evenodd" fill="#31343D" d="M389,253.6l4,9.9v0c-0.1,0-0.2,0-0.3,0l-3.9-9.7
				C388.9,253.7,389,253.7,389,253.6z"/>
			<path fill-rule="evenodd" clip-rule="evenodd" fill="#A9AAAF" d="M398.2,258.3c0,1.2-0.3,2.4-1,3.4c-0.2,0.4-0.5,0.7-0.8,1
				c-0.3,0.3-0.7,0.6-1,0.8c-0.2,0.1-0.3,0.2-0.5,0.3l-0.3-0.6v0l0.1-0.1h0.1l0.1,0c0.2-0.1,0.5-0.2,0.7-0.4
				c0.3-0.2,0.6-0.4,0.9-0.7C397.6,260.9,398.1,259.7,398.2,258.3z"/>
		</g>
	</g>
	<g>
		<g>
			
				<linearGradient id="SVGID_11_" gradientUnits="userSpaceOnUse" x1="-393.0146" y1="159.8691" x2="-387.7959" y2="159.8691" gradientTransform="matrix(-0.4996 -0.8663 0.8663 -0.4996 1.363158e-004 8.500218e-004)">
				<stop  offset="0" style="stop-color:#696E74"/>
				<stop  offset="1" style="stop-color:#424041"/>
			</linearGradient>
			<path fill-rule="evenodd" clip-rule="evenodd" fill="url(#SVGID_11_)" d="M337,260.8c-0.4,1.4-1.3,2.4-2.5,3.1
				c-0.3,0.2-0.7,0.4-1,0.5c-0.2,0.1-0.4,0.1-0.6,0.1c0.4-0.2,0.7-0.3,1-0.5c1.3-0.8,2.2-1.9,2.6-3.4c0.4-1.5,0.2-2.9-0.6-4.3
				c-0.8-1.3-1.9-2.2-3.4-2.6c-0.3,0-0.5,0-0.8-0.1v-0.2c0.5,0,1,0.1,1.6,0.1c0.6,0.2,1.1,0.4,1.6,0.8l0.3,0.3
				c0.5,0.4,0.9,1,1.4,1.6c0.8,1.5,1,3,0.6,4.5C337.1,260.7,337.1,260.8,337,260.8z"/>
			<path fill-rule="evenodd" clip-rule="evenodd" fill="#6B6A70" d="M329.6,253.3l0,0.4c-0.1,0.1-0.1,0.1-0.3,0.1
				c-0.1,0-0.2,0.1-0.3,0.1v-0.4c0,0,0.1-0.1,0.2-0.1C329.5,253.3,329.5,253.3,329.6,253.3z"/>
			<path fill-rule="evenodd" clip-rule="evenodd" fill="#38373C" d="M330.5,253.5c0,0-0.1,0-0.1,0c-0.3,0-0.5,0.1-0.7,0.2l0-0.4
				c0.3-0.1,0.6-0.2,0.9-0.2l0.1,0.4L330.5,253.5L330.5,253.5z"/>
			<path fill-rule="evenodd" clip-rule="evenodd" fill="#605D68" d="M331.6,253.4c-0.2,0-0.3,0-0.5,0.1c-0.1,0-0.1,0-0.1,0
				s0,0,0-0.1c-0.1-0.1-0.2,0-0.3,0.1l-0.1-0.4c0.7-0.1,1.5,0,2.2,0.2c0.1,0,0.1,0,0.2,0c0.7,0.3,1.4,0.6,1.9,1
				c-0.5-0.3-1.1-0.6-1.6-0.8C332.7,253.5,332.1,253.4,331.6,253.4z"/>
			<path fill-rule="evenodd" clip-rule="evenodd" fill="#52525A" d="M329.4,254c-0.1,0-0.1,0-0.3,0.1v-0.3c0.1,0,0.1,0,0.3-0.1
				c0.1,0,0.2,0,0.3-0.1c0.2-0.1,0.4-0.1,0.7-0.2c0,0,0.1,0,0.1,0c-0.1,0-0.1,0-0.2,0.1c-0.3,0.1-0.5,0.1-0.6,0.3
				C329.6,253.9,329.5,253.9,329.4,254z"/>
			<path fill-rule="evenodd" clip-rule="evenodd" fill="#646F71" d="M330.6,253.5c0.1-0.1,0.2-0.2,0.3-0.1c0,0,0,0.1,0,0.1
				s0.1,0,0.1,0l1.3,10.7l0.1,0.2c-0.1,0-0.2,0.1-0.3,0.1L330.6,253.5L330.6,253.5z"/>
			
				<linearGradient id="SVGID_12_" gradientUnits="userSpaceOnUse" x1="-311.7471" y1="288.1865" x2="-301.1827" y2="288.1865" gradientTransform="matrix(-0.1502 -0.9887 0.9887 -0.1502 -2.452731e-004 -4.674792e-004)">
				<stop  offset="0" style="stop-color:#3D3D47"/>
				<stop  offset="1" style="stop-color:#33363D"/>
			</linearGradient>
			<path fill-rule="evenodd" clip-rule="evenodd" fill="url(#SVGID_12_)" d="M332.2,264.5c0,0-0.1,0-0.1,0c-0.2,0.1-0.4,0.1-0.6,0.2
				c-0.1,0-0.3,0-0.5-0.1l-1.4-10.7c0.2-0.1,0.4-0.2,0.6-0.3c0,0,0.1,0,0.2-0.1l0.1,0h0.1v0L332.2,264.5z"/>
			<path fill-rule="evenodd" clip-rule="evenodd" fill="#B8C0C3" d="M331.6,253.6v0.1c-0.1-0.1-0.3-0.2-0.5-0.3
				c0.2,0,0.3-0.1,0.5-0.1V253.6z"/>
			<path fill-rule="evenodd" clip-rule="evenodd" fill="#B4B1AC" d="M329.1,253.9c-0.3,0.2-0.6,0.3-0.9,0.4
				c-0.3,0.2-0.6,0.4-0.9,0.7c-0.8,0.7-1.4,1.7-1.6,2.8c-0.4,1.5-0.3,2.9,0.5,4.2c0.2,0.4,0.4,0.7,0.7,0.9c0.7,0.8,1.5,1.3,2.5,1.6
				c0.1,0.1,0.2,0.1,0.3,0.1c0.3,0.1,0.6,0.2,0.9,0.2c0.7,0.1,1.4,0,2-0.1h0v0.6c-1,0.2-2,0.2-3-0.1c-1.2-0.3-2.2-1-3-1.9
				c-0.1-0.1-0.2-0.2-0.3-0.3c-0.1-0.2-0.3-0.4-0.5-0.7c-0.9-1.5-1.1-3-0.6-4.7c0.4-1.2,1-2.2,2-3.1c0.3-0.2,0.6-0.4,0.9-0.6
				c0.4-0.2,0.7-0.4,1.1-0.4V253.9z"/>
			
				<linearGradient id="SVGID_13_" gradientUnits="userSpaceOnUse" x1="-389.6836" y1="155.4814" x2="-386.5362" y2="155.4814" gradientTransform="matrix(-0.4985 -0.8669 0.8669 -0.4985 -2.390146e-005 -9.473562e-004)">
				<stop  offset="0" style="stop-color:#E8E8E0"/>
				<stop  offset="1" style="stop-color:#535258"/>
			</linearGradient>
			<path fill-rule="evenodd" clip-rule="evenodd" fill="url(#SVGID_13_)" d="M330.4,264.5l0.1,0.3c-0.3,0-0.6-0.1-0.9-0.2
				c-0.1,0-0.1,0-0.3-0.1c-1-0.3-1.8-0.8-2.5-1.6c-0.3-0.2-0.5-0.5-0.7-0.9c-0.8-1.3-0.9-2.7-0.5-4.2c0.3-1.1,0.8-2.1,1.6-2.8
				c0.3-0.2,0.6-0.5,0.9-0.7c0.3-0.1,0.6-0.3,0.9-0.4v0.3c-0.1,0-0.1,0-0.2,0.1c-0.3,0.2-0.6,0.4-0.9,0.6c-0.8,0.7-1.4,1.6-1.7,2.8
				c-0.4,1.5-0.2,2.9,0.5,4.3c0.2,0.3,0.5,0.6,0.7,0.9c0.7,0.7,1.5,1.3,2.5,1.6c0.1,0,0.2,0,0.3,0
				C330.3,264.4,330.4,264.5,330.4,264.5z"/>
			
				<linearGradient id="SVGID_14_" gradientUnits="userSpaceOnUse" x1="-339.8262" y1="249.7295" x2="-332.6035" y2="249.7295" gradientTransform="matrix(-0.2595 -0.9657 0.9657 -0.2595 -3.022552e-004 7.297397e-004)">
				<stop  offset="0" style="stop-color:#5F6170"/>
				<stop  offset="1" style="stop-color:#7C7C7C"/>
			</linearGradient>
			<path fill-rule="evenodd" clip-rule="evenodd" fill="url(#SVGID_14_)" d="M329.1,254.1l1.3,10.4c0,0-0.1,0-0.1-0.1
				c-0.1,0-0.2,0-0.3,0c-1-0.3-1.8-0.9-2.5-1.6c-0.2-0.3-0.5-0.6-0.7-0.9c-0.7-1.3-0.9-2.8-0.5-4.3c0.3-1.1,0.9-2.1,1.7-2.8
				c0.3-0.3,0.6-0.5,0.9-0.6C329,254.1,329.1,254.1,329.1,254.1z"/>
			<path fill-rule="evenodd" clip-rule="evenodd" fill="#31343D" d="M329.4,254l1.3,10.5h-0.1c-0.1,0-0.1,0-0.3,0l-1.3-10.4
				C329.3,254,329.3,254,329.4,254z"/>
			<path fill-rule="evenodd" clip-rule="evenodd" fill="#6A7579" d="M331,264.5c-0.1,0-0.2,0-0.3,0l-1.3-10.5
				c0.1-0.1,0.2-0.1,0.3-0.1L331,264.5z"/>
			
				<linearGradient id="SVGID_15_" gradientUnits="userSpaceOnUse" x1="-294.187" y1="308.8838" x2="-283.2389" y2="308.8838" gradientTransform="matrix(-9.140970e-002 -0.9958 0.9958 -9.140970e-002 9.676814e-005 -3.686249e-004)">
				<stop  offset="0" style="stop-color:#666C7A"/>
				<stop  offset="1" style="stop-color:#494E61"/>
			</linearGradient>
			<path fill-rule="evenodd" clip-rule="evenodd" fill="url(#SVGID_15_)" d="M332.4,264.1l-0.8-10.4c0.1,0,0.1,0,0.1,0
				c0.7,0.2,1.4,0.5,1.9,0.9c0.6,0.4,1.1,1,1.5,1.7c0.8,1.3,1,2.7,0.6,4.2c0,0.1,0,0.1-0.1,0.2c-0.4,1.4-1.3,2.5-2.6,3.3
				c-0.2,0.2-0.5,0.3-0.7,0.4L332.4,264.1z"/>
			
				<linearGradient id="SVGID_16_" gradientUnits="userSpaceOnUse" x1="-301.8013" y1="298.8271" x2="-295.6522" y2="298.8271" gradientTransform="matrix(-0.1263 -0.992 0.992 -0.1263 -8.842349e-005 4.578829e-004)">
				<stop  offset="0" style="stop-color:#B9BDBE"/>
				<stop  offset="1" style="stop-color:#606068"/>
			</linearGradient>
			<path fill-rule="evenodd" clip-rule="evenodd" fill="url(#SVGID_16_)" d="M332.5,264.5L332.5,264.5l0-0.2
				c0.2-0.1,0.5-0.2,0.7-0.4c1.3-0.8,2.1-1.9,2.6-3.3c0.1-0.1,0.1-0.1,0.1-0.2c0.4-1.5,0.2-2.9-0.6-4.2c-0.4-0.7-0.9-1.3-1.5-1.7
				c-0.5-0.4-1.2-0.7-1.9-0.9c0,0-0.1,0-0.1,0v-0.1c0.3,0.1,0.5,0.1,0.8,0.1c1.5,0.5,2.6,1.3,3.4,2.6c0.8,1.3,1,2.8,0.6,4.3
				c-0.4,1.5-1.3,2.6-2.6,3.4c-0.3,0.2-0.6,0.3-1,0.5h-0.1l0,0C332.7,264.5,332.6,264.5,332.5,264.5z"/>
			<path fill-rule="evenodd" clip-rule="evenodd" fill="#AAB2B4" d="M331.1,253.5c0.2,0.1,0.4,0.2,0.5,0.3l0.8,10.4L331.1,253.5z"/>
			<path fill-rule="evenodd" clip-rule="evenodd" fill="#A9AAAF" d="M337,260.8c-0.3,1.3-0.9,2.3-1.8,3.1c-0.3,0.3-0.7,0.5-1,0.6
				c-0.4,0.2-0.8,0.4-1.1,0.5c-0.2,0.1-0.4,0.2-0.6,0.2v-0.6h0l0-0.1c0.1,0,0.2,0,0.3,0l0,0h0.1c0.2,0,0.4,0,0.6-0.1
				c0.4-0.1,0.7-0.3,1-0.5C335.8,263.2,336.6,262.1,337,260.8z"/>
		</g>
	</g>
	<g>
		<g>
			
				<linearGradient id="SVGID_17_" gradientUnits="userSpaceOnUse" x1="-393.9834" y1="242.9502" x2="-383.0603" y2="242.9502" gradientTransform="matrix(-0.3457 -0.9384 0.9384 -0.3457 -3.476143e-004 -3.197789e-004)">
				<stop  offset="0" style="stop-color:#666C7A"/>
				<stop  offset="1" style="stop-color:#494E61"/>
			</linearGradient>
			<path fill-rule="evenodd" clip-rule="evenodd" fill="url(#SVGID_17_)" d="M362.1,286l-0.1-0.2l-3.4-9.9c0,0,0.1,0,0.2,0
				c0.7,0,1.4,0.1,2.1,0.4c0.7,0.3,1.3,0.7,1.9,1.3c1.1,1.1,1.6,2.4,1.6,4c0,0,0,0.1,0,0.2c0,1.5-0.6,2.7-1.6,3.8
				C362.5,285.6,362.3,285.8,362.1,286z"/>
			
				<linearGradient id="SVGID_18_" gradientUnits="userSpaceOnUse" x1="-399.4414" y1="229.3066" x2="-393.2623" y2="229.3066" gradientTransform="matrix(-0.3786 -0.9255 0.9255 -0.3786 -3.144741e-004 6.107092e-004)">
				<stop  offset="0" style="stop-color:#B9BDBE"/>
				<stop  offset="1" style="stop-color:#606068"/>
			</linearGradient>
			<path fill-rule="evenodd" clip-rule="evenodd" fill="url(#SVGID_18_)" d="M362.4,286.1c0,0-0.1,0-0.2,0h0l-0.1-0.2
				c0.2-0.2,0.4-0.4,0.7-0.6c1-1,1.6-2.3,1.6-3.8c0-0.1,0-0.2,0-0.2c0-1.6-0.5-2.9-1.6-4c-0.6-0.6-1.2-1-1.9-1.3
				c-0.7-0.2-1.4-0.4-2.1-0.4c-0.1,0-0.1,0-0.2,0l-0.1-0.1c0.3,0,0.6,0,0.9,0c1.6,0,2.9,0.5,3.9,1.6c1.1,1.1,1.7,2.4,1.7,3.9
				c0,1.6-0.5,2.9-1.7,4c-0.2,0.2-0.5,0.5-0.9,0.8V286.1z"/>
			
				<linearGradient id="SVGID_19_" gradientUnits="userSpaceOnUse" x1="-456.1899" y1="57.6816" x2="-450.9573" y2="57.6816" gradientTransform="matrix(-0.7071 -0.7071 0.7071 -0.7071 2.086163e-005 -3.801584e-004)">
				<stop  offset="0" style="stop-color:#696E74"/>
				<stop  offset="1" style="stop-color:#424041"/>
			</linearGradient>
			<path fill-rule="evenodd" clip-rule="evenodd" fill="url(#SVGID_19_)" d="M365.7,281.4c-0.1,1.4-0.7,2.6-1.7,3.6
				c-0.3,0.3-0.5,0.5-0.8,0.7c-0.2,0.2-0.4,0.3-0.7,0.4l-0.1,0.1V286c0.4-0.3,0.7-0.6,0.9-0.8c1.1-1.1,1.7-2.4,1.7-4
				c0-1.5-0.5-2.8-1.7-3.9c-1.1-1.1-2.4-1.6-3.9-1.6c-0.3,0-0.6,0-0.9,0v-0.1c0.5-0.1,1-0.2,1.5-0.2c0.8,0,1.5,0.1,2.1,0.4
				c0.6,0.3,1.2,0.7,1.7,1.2c1.1,1.2,1.7,2.6,1.8,4.2C365.7,281.2,365.7,281.3,365.7,281.4z"/>
			<path fill-rule="evenodd" clip-rule="evenodd" fill="#605D68" d="M358.5,275.6c-0.1,0-0.3,0-0.4,0.1c-0.1,0-0.2,0.1-0.2,0.1
				l-0.1,0c-0.1,0-0.2,0.1-0.3,0.2l-0.3-0.5c0.7-0.2,1.4-0.3,2.2-0.3c0.1,0,0.2,0,0.3,0c0.8,0,1.6,0.2,2.4,0.5
				c-0.6-0.2-1.3-0.4-2.1-0.4C359.5,275.4,359,275.5,358.5,275.6z"/>
			<path fill-rule="evenodd" clip-rule="evenodd" fill="#B4B1AC" d="M356.3,276.7c-0.3,0.2-0.6,0.4-0.8,0.6
				c-0.3,0.2-0.5,0.5-0.7,0.9c-0.6,0.9-1,1.9-1,3c0,1.6,0.5,2.9,1.7,4c0.3,0.3,0.6,0.5,0.9,0.8c0.8,0.5,1.8,0.8,2.9,0.9
				c0,0,0.1,0,0.2,0c0.3,0,0.6,0,0.8-0.1c0.7-0.1,1.4-0.3,2-0.6v0.1l0.2,0.5c-0.9,0.5-1.8,0.7-2.9,0.7c-1.2,0-2.3-0.3-3.3-1
				c-0.1-0.1-0.3-0.2-0.4-0.2c-0.2-0.2-0.4-0.4-0.6-0.6c-1.2-1.2-1.8-2.6-1.8-4.3c0-1.3,0.3-2.5,1-3.5c0.2-0.3,0.5-0.6,0.8-0.9
				c0.3-0.3,0.6-0.5,0.9-0.7L356.3,276.7z"/>
			<path fill-rule="evenodd" clip-rule="evenodd" fill="#6B6A70" d="M356,276.3c0.1-0.1,0.1-0.1,0.2-0.1s0.2-0.1,0.3-0.1l0.2,0.4
				c-0.1,0.1-0.2,0.1-0.3,0.1c-0.1,0.1-0.1,0.1-0.2,0.2L356,276.3z"/>
			<path fill-rule="evenodd" clip-rule="evenodd" fill="#52525A" d="M356.3,276.7c0.1-0.1,0.1-0.1,0.2-0.2c0.1,0,0.1-0.1,0.3-0.1
				c0.1-0.1,0.3-0.2,0.6-0.3c0,0,0.1,0,0.2-0.1c-0.1,0.1-0.2,0.1-0.2,0.2c-0.2,0.1-0.4,0.3-0.5,0.4c-0.1,0-0.1,0.1-0.2,0.2
				c-0.1,0-0.2,0.1-0.3,0.1V276.7z"/>
			
				<linearGradient id="SVGID_20_" gradientUnits="userSpaceOnUse" x1="-453.0435" y1="52.9414" x2="-449.9322" y2="52.9414" gradientTransform="matrix(-0.7071 -0.7071 0.7071 -0.7071 4.172325e-005 -8.475780e-004)">
				<stop  offset="0" style="stop-color:#E8E8E0"/>
				<stop  offset="1" style="stop-color:#535258"/>
			</linearGradient>
			<path fill-rule="evenodd" clip-rule="evenodd" fill="url(#SVGID_20_)" d="M360.2,286.5l0.1,0.3c-0.3,0.1-0.5,0.1-0.8,0.1
				c-0.1,0-0.2,0-0.2,0c-1.1-0.1-2-0.4-2.9-0.9c-0.3-0.2-0.6-0.5-0.9-0.8c-1.1-1.1-1.7-2.4-1.7-4c0-1.2,0.3-2.2,1-3
				c0.2-0.3,0.4-0.6,0.7-0.9c0.2-0.3,0.5-0.5,0.8-0.6v0.1c0,0.1-0.1,0.1-0.2,0.1c-0.3,0.3-0.5,0.6-0.8,0.9c-0.6,0.9-0.9,2-0.9,3.1
				c0,1.5,0.5,2.8,1.6,4c0.3,0.3,0.6,0.5,0.9,0.7c0.9,0.6,1.8,0.9,2.9,0.9c0.1,0,0.1,0,0.2,0C360.1,286.5,360.1,286.5,360.2,286.5z"
				/>
			<path fill-rule="evenodd" clip-rule="evenodd" fill="#6A7579" d="M356.7,276.5l4.1,10c-0.1,0-0.2,0-0.4,0l-4-9.8
				C356.6,276.6,356.6,276.5,356.7,276.5z"/>
			<path fill-rule="evenodd" clip-rule="evenodd" fill="#31343D" d="M356.5,276.7l4,9.8v0c-0.1,0-0.2,0-0.3,0l-3.9-9.7
				C356.3,276.8,356.4,276.7,356.5,276.7z"/>
			<path fill-rule="evenodd" clip-rule="evenodd" fill="#38373C" d="M356.5,276c0.3-0.2,0.5-0.3,0.8-0.5l0.3,0.5h-0.1
				c-0.1,0.1-0.1,0.1-0.2,0.1c-0.3,0.1-0.5,0.2-0.6,0.3L356.5,276z"/>
			
				<linearGradient id="SVGID_21_" gradientUnits="userSpaceOnUse" x1="-426.6543" y1="168.6553" x2="-419.4416" y2="168.6553" gradientTransform="matrix(-0.4985 -0.8669 0.8669 -0.4985 -5.871058e-005 -5.125999e-004)">
				<stop  offset="0" style="stop-color:#5F6170"/>
				<stop  offset="1" style="stop-color:#7C7C7C"/>
			</linearGradient>
			<path fill-rule="evenodd" clip-rule="evenodd" fill="url(#SVGID_21_)" d="M356.3,276.9l3.9,9.7c0,0-0.1,0-0.1,0
				c-0.1,0-0.1,0-0.2,0c-1.1,0-2-0.3-2.9-0.9c-0.3-0.2-0.5-0.4-0.9-0.7c-1.1-1.1-1.6-2.5-1.6-4c0-1.2,0.3-2.2,0.9-3.1
				c0.2-0.3,0.5-0.6,0.8-0.9C356.2,277,356.2,276.9,356.3,276.9z"/>
			<path fill-rule="evenodd" clip-rule="evenodd" fill="#B8C0C3" d="M358.6,275.9c-0.2,0-0.3-0.1-0.5-0.1c0.1-0.1,0.3-0.1,0.4-0.1
				v0.1L358.6,275.9z"/>
			
				<linearGradient id="SVGID_22_" gradientUnits="userSpaceOnUse" x1="-404.1294" y1="218.2837" x2="-393.5362" y2="218.2837" gradientTransform="matrix(-0.3965 -0.918 0.9225 -0.3862 -1.174808e-004 4.084706e-004)">
				<stop  offset="0" style="stop-color:#3D3D47"/>
				<stop  offset="1" style="stop-color:#33363D"/>
			</linearGradient>
			<path fill-rule="evenodd" clip-rule="evenodd" fill="url(#SVGID_22_)" d="M360.8,286.5l-4.1-10c0.1-0.1,0.3-0.2,0.5-0.4
				c0.1-0.1,0.1-0.1,0.2-0.2h0.1l4.3,10.1l-0.1,0.1c-0.2,0.1-0.4,0.2-0.6,0.3C361.2,286.4,361,286.5,360.8,286.5z"/>
			<path fill-rule="evenodd" clip-rule="evenodd" fill="#646F71" d="M358.1,275.7l3.9,10l0.1,0.2c-0.1,0-0.1,0.1-0.2,0.1l-4.3-10.1
				c0.1-0.1,0.2-0.2,0.3-0.2l0.1,0C357.9,275.8,358,275.7,358.1,275.7z"/>
			<path fill-rule="evenodd" clip-rule="evenodd" fill="#AAB2B4" d="M362,285.8l-3.9-10c0.2,0.1,0.3,0.1,0.5,0.1L362,285.8z"/>
			<path fill-rule="evenodd" clip-rule="evenodd" fill="#A9AAAF" d="M365.7,281.4c0,1.2-0.3,2.4-1,3.4c-0.2,0.3-0.5,0.6-0.8,0.9
				c-0.3,0.3-0.6,0.6-0.9,0.8c-0.2,0.1-0.3,0.2-0.5,0.3l-0.2-0.5v-0.1h0c0.1,0,0.1,0,0.2,0l0.1-0.1c0.2-0.1,0.5-0.2,0.7-0.4
				c0.3-0.2,0.6-0.4,0.8-0.7C365,283.9,365.5,282.7,365.7,281.4z"/>
		</g>
	</g>
</g>
</svg>
