<?xml version="1.0" encoding="utf-8"?>
<!-- Generator: Adobe Illustrator 16.0.0, SVG Export Plug-In . SVG Version: 6.00 Build 0)  -->
<!DOCTYPE svg PUBLIC "-//W3C//DTD SVG 1.1//EN" "http://www.w3.org/Graphics/SVG/1.1/DTD/svg11.dtd">
<svg version="1.1" id="Layer_2" xmlns="http://www.w3.org/2000/svg" xmlns:xlink="http://www.w3.org/1999/xlink" x="0px" y="0px"
	 width="700px" height="700px" viewBox="0 0 700 700" enable-background="new 0 0 700 700" xml:space="preserve">
<g id="Layer_1_1_">
	<g>
		<g>
			
				<linearGradient id="SVGID_1_" gradientUnits="userSpaceOnUse" x1="110.21" y1="534.8887" x2="179.6602" y2="534.8887" gradientTransform="matrix(1 0 0 -1 202.3398 780.0391)">
				<stop  offset="0" style="stop-color:#000000;stop-opacity:0"/>
				<stop  offset="5.882353e-002" style="stop-color:#000000;stop-opacity:0.502"/>
				<stop  offset="0.9451" style="stop-color:#000000;stop-opacity:0.502"/>
				<stop  offset="1" style="stop-color:#000000;stop-opacity:0"/>
			</linearGradient>
			<path fill="url(#SVGID_1_)" d="M382,252.1h-67.8c-2.2-4.7-2.2-9.3,0-13.9H382V252.1z"/>
		</g>
		<g>
			
				<linearGradient id="SVGID_2_" gradientUnits="userSpaceOnUse" x1="164.0205" y1="432.0684" x2="244.5753" y2="432.0684" gradientTransform="matrix(0.8684 -0.4959 3.684833e-002 -1.1726 151.3259 852.6992)">
				<stop  offset="1.568628e-002" style="stop-color:#526F7A"/>
				<stop  offset="9.411765e-002" style="stop-color:#778991"/>
				<stop  offset="0.2078" style="stop-color:#EDEFEF"/>
				<stop  offset="0.349" style="stop-color:#878A93"/>
				<stop  offset="0.4902" style="stop-color:#B6B6C0"/>
				<stop  offset="1" style="stop-color:#54595F"/>
			</linearGradient>
			<path fill="url(#SVGID_2_)" d="M379,250.5h-64.5c-2.1-4.7-2.1-9.3,0-13.9H379V250.5z"/>
		</g>
		<g>
			
				<linearGradient id="SVGID_3_" gradientUnits="userSpaceOnUse" x1="182.6602" y1="534.7891" x2="205.2352" y2="534.7891" gradientTransform="matrix(1 0 0 -1 202.3398 780.0391)">
				<stop  offset="0" style="stop-color:#000000;stop-opacity:0"/>
				<stop  offset="9.019607e-002" style="stop-color:#000000;stop-opacity:0.502"/>
				<stop  offset="0.9216" style="stop-color:#000000;stop-opacity:0.502"/>
				<stop  offset="1" style="stop-color:#000000;stop-opacity:0"/>
			</linearGradient>
			<path fill="url(#SVGID_3_)" d="M406.5,238.3c1.5,4.6,1.5,9.2,0,13.9H385v-13.9H406.5z"/>
		</g>
		<g>
			
				<linearGradient id="SVGID_4_" gradientUnits="userSpaceOnUse" x1="-513.3867" y1="953.165" x2="-460.4232" y2="953.165" gradientTransform="matrix(-0.8685 -0.4956 0.4694 1.4192 -476.2263 -1351.5811)">
				<stop  offset="0" style="stop-color:#172024"/>
				<stop  offset="0.1333" style="stop-color:#323A3F"/>
				<stop  offset="0.1961" style="stop-color:#758082"/>
				<stop  offset="0.2863" style="stop-color:#B0B5B5"/>
				<stop  offset="0.349" style="stop-color:#878A93"/>
				<stop  offset="0.4706" style="stop-color:#93949F"/>
				<stop  offset="0.6941" style="stop-color:#54595F"/>
			</linearGradient>
			<path fill="url(#SVGID_4_)" d="M405.2,236.5c1.3,4.6,1.3,9.2,0,13.9h-18.8v-13.9H405.2z"/>
		</g>
	</g>
	<g>
		
			<radialGradient id="SVGID_5_" cx="-135.6431" cy="812.2725" r="5.7375" gradientTransform="matrix(1.7111 0 0 -1.7111 595.5495 1616.3801)" gradientUnits="userSpaceOnUse">
			<stop  offset="0" style="stop-color:#000000"/>
			<stop  offset="1" style="stop-color:#000000;stop-opacity:0"/>
		</radialGradient>
		<path fill="url(#SVGID_5_)" d="M351.1,227.7c-0.5-0.8-0.5-1.6,0-2.3l3.6-6.7c0.5-0.8,1.1-1.3,1.8-1.5h7.8c0.9,0,1.5,0.3,1.9,0.8
			l4.3,6.8c0.4,1,0.4,1.9,0,2.8l-3.5,6.6c-0.1,0.7-0.8,1.1-2.1,1h-8.2c-0.7-0.1-1.3-0.5-1.7-1.1L351.1,227.7z"/>
		
			<radialGradient id="SVGID_6_" cx="-136.9429" cy="787.084" r="5.3" gradientTransform="matrix(1.7111 0 0 -1.0896 593.5983 1087.0171)" gradientUnits="userSpaceOnUse">
			<stop  offset="0" style="stop-color:#000000"/>
			<stop  offset="1" style="stop-color:#000000;stop-opacity:0"/>
		</radialGradient>
		<path fill="url(#SVGID_6_)" d="M349.2,227.7c-0.5-0.8-0.5-1.6,0-2.3l3.6-6.7c0.5-0.8,1.1-1.3,1.8-1.5h7.8c0.9,0,1.5,0.3,1.9,0.8
			l4.3,6.8c0.4,1,0.4,1.9,0,2.8c-0.1,5.4-1.3,7.6-3.5,6.6c-0.1,0.7-0.8,1.1-2.1,1h-8.2c-0.7-0.1-1.3-0.5-1.7-1.1L349.2,227.7z"/>
		
			<radialGradient id="SVGID_7_" cx="-159.2568" cy="807.1729" r="5.7375" gradientTransform="matrix(-1.7111 0 0 -1.7111 84.8802 1606.7727)" gradientUnits="userSpaceOnUse">
			<stop  offset="0" style="stop-color:#000000"/>
			<stop  offset="1" style="stop-color:#000000;stop-opacity:0"/>
		</radialGradient>
		<path fill="url(#SVGID_7_)" d="M354.6,217.2c0.4-0.5,1-0.8,1.9-0.8h7.8c0.7,0.2,1.3,0.7,1.8,1.5l3.6,6.7c0.5,0.7,0.5,1.5,0,2.3
			l-3.8,6.4c-0.5,0.6-1,1-1.7,1.1H356c-1.3,0.1-2-0.3-2.1-1l-3.5-6.6c-0.4-0.9-0.4-1.9,0-2.8L354.6,217.2z"/>
		
			<linearGradient id="SVGID_8_" gradientUnits="userSpaceOnUse" x1="-129.5254" y1="816.9375" x2="-140.776" y2="819.958" gradientTransform="matrix(1.9832 0 0 -1.9832 626.9285 1847.8)">
			<stop  offset="0" style="stop-color:#58585A"/>
			<stop  offset="0.2118" style="stop-color:#FEFEFE"/>
			<stop  offset="0.6588" style="stop-color:#AEACAF"/>
			<stop  offset="1" style="stop-color:#D4CED0"/>
		</linearGradient>
		<path fill="url(#SVGID_8_)" d="M350.8,224.1l3.4-6.2c0.5-0.8,1-1.3,1.7-1.4h7.3c0.8,0,1.4,0.2,1.8,0.7l4,6.3
			c0.4,0.9,0.4,1.8,0,2.7l-3.3,6.1c-0.1,0.7-0.8,1.1-2,1H356c-0.7-0.1-1.2-0.5-1.6-1.1l-3.6-5.9
			C350.4,225.5,350.4,224.8,350.8,224.1z"/>
		<path fill="#79767A" d="M354,225.4c0-1.8,0.6-3.3,1.9-4.5c1.4-1.3,2.9-1.9,4.6-1.9c1.9,0,3.4,0.6,4.6,1.9c1.3,1.3,2,2.8,2,4.5
			c0,1.9-0.7,3.5-2,4.7c-1.2,1.3-2.7,2-4.6,2c-1.7,0-3.3-0.7-4.6-2C354.6,228.8,354,227.3,354,225.4z"/>
		
			<linearGradient id="SVGID_9_" gradientUnits="userSpaceOnUse" x1="-123.3711" y1="810.4648" x2="-126.1003" y2="815.3875" gradientTransform="matrix(1.7111 0 0 -1.7111 572.8483 1616.3801)">
			<stop  offset="0.2118" style="stop-color:#FEFEFE"/>
			<stop  offset="0.6588" style="stop-color:#AEACAF"/>
			<stop  offset="1" style="stop-color:#D4CED0"/>
		</linearGradient>
		<polygon fill="url(#SVGID_9_)" points="354.6,228.2 354.6,222.7 359.5,219.9 364.3,222.7 364.3,228.2 359.5,231 		"/>
	</g>
</g>
</svg>
