<?xml version="1.0" encoding="utf-8"?>
<!-- Generator: Adobe Illustrator 16.0.0, SVG Export Plug-In . SVG Version: 6.00 Build 0)  -->
<!DOCTYPE svg PUBLIC "-//W3C//DTD SVG 1.1//EN" "http://www.w3.org/Graphics/SVG/1.1/DTD/svg11.dtd">
<svg version="1.1" xmlns="http://www.w3.org/2000/svg" xmlns:xlink="http://www.w3.org/1999/xlink" x="0px" y="0px" width="35.7px"
	 height="331.5px" viewBox="0 0 35.7 331.5" enable-background="new 0 0 35.7 331.5" xml:space="preserve">
<g id="Layer_6">
</g>
<g id="Layer_5">
	<g>
		<g>
			
				<radialGradient id="SVGID_1_" cx="16.6313" cy="168.6836" r="39.75" gradientTransform="matrix(1 0 2.201258e-003 4.8528 -0.2026 -649.9092)" gradientUnits="userSpaceOnUse">
				<stop  offset="0" style="stop-color:#000000;stop-opacity:0.502"/>
				<stop  offset="1" style="stop-color:#000000;stop-opacity:0"/>
			</radialGradient>
			<polygon fill-rule="evenodd" clip-rule="evenodd" fill="url(#SVGID_1_)" points="35.6,2.9 35.8,331.5 12.9,331.5 12.8,2.9 			"/>
		</g>
		<g>
			
				<linearGradient id="SVGID_2_" gradientUnits="userSpaceOnUse" x1="-150.627" y1="-407.0605" x2="280.2605" y2="-407.0605" gradientTransform="matrix(0.3372 0.9414 -0.991 0.1988 -421.6492 150.1553)">
				<stop  offset="0" style="stop-color:#FFFFFF"/>
				<stop  offset="0.2588" style="stop-color:#CCD6DD"/>
				<stop  offset="0.5216" style="stop-color:#BCCBD3"/>
				<stop  offset="0.6824" style="stop-color:#E2D2B9"/>
				<stop  offset="0.8471" style="stop-color:#B6B6C0"/>
				<stop  offset="1" style="stop-color:#D7D2D7"/>
			</linearGradient>
			<polygon fill-rule="evenodd" clip-rule="evenodd" fill="url(#SVGID_2_)" points="28.4,0.8 28.6,319.3 0.1,319.3 0,0.8 			"/>
		</g>
		<g>
			<g>
				
					<path fill-rule="evenodd" clip-rule="evenodd" fill="none" stroke="#7D7D7D" stroke-linecap="round" stroke-linejoin="round" stroke-miterlimit="3" d="
					M25.8,3.8h-6.3 M25.8,16.2h-3.5 M25.8,6.9h-3.5 M25.8,10h-3.5 M25.8,13.1h-3.5 M25.6,19.3h-6.2 M25.6,31.8h-3.4 M25.6,28.7h-3.4
					 M25.6,25.6h-3.4 M25.6,22.4h-3.4 M25.6,34.9h-3.8h-1.5h-1 M25.6,38h-3.4 M25.6,41.1h-3.4 M25.6,44.3h-3.4 M25.6,47.4h-3.4
					 M25.6,53.6h-3.5 M25.6,50.4h-5.3h-1 M25.8,66.1h-5.5h-0.9 M25.6,56.7h-3.5 M25.6,59.8h-3.5 M25.6,62.9h-3.5 M25.8,72.3h-3.5
					 M25.8,75.4h-3.5 M25.8,69.2h-3.5 M25.8,78.6h-3.5 M25.6,81.6h-5.3h-1 M25.6,87.9h-3.4 M25.6,84.7h-3.4 M25.7,91h-3.4
					 M25.7,94.1h-3.4 M25.6,103.5h-3.5 M25.6,100.3h-3.5 M25.6,97.2h-5.3h-1 M25.6,112.8h-5.2h-1.1 M25.6,106.6h-3.5 M25.6,109.7
					h-3.5 M25.6,115.9h-3.4 M25.6,125.3h-3.4 M25.6,122.1h-3.4 M25.6,119h-3.4 M25.7,128.4h-5.3h-1 M25.7,134.6h-3.4 M25.7,131.5
					h-3.4 M25.7,137.8h-3.4 M25.7,140.8h-3.4 M25.7,153.3h-3.4 M25.7,147.1h-3.4 M25.7,150.2h-3.4 M25.6,144h-5.3h-1 M25.6,159.6
					h-5.3h-1 M25.7,156.4h-3.4 M25.7,162.7h-3.4 M25.7,165.8h-3.4 M25.6,172h-3.3 M25.7,168.9h-3.4 M25.6,175.1h-5.3h-1 M25.1,190.7
					h-5.2h-0.8h-0.3 M25.3,184.5h-3.5 M25.3,178.3h-3.5 M25.3,181.3h-3.5 M25.1,187.6h-3.3 M25.1,206.4h-5.2h-0.8h-0.3 M25.3,200.1
					h-3.5 M25.3,197h-3.5 M25.1,203.2h-3.3 M25.3,193.9h-3.5 M25.3,212.5h-3.5 M25.3,209.4h-3.5 M25.3,215.6h-3.5 M25.1,221.8h-5.2
					h-0.8h-0.3 M25.1,237.5h-5.2h-0.8h-0.3 M25.3,228.2h-3.5 M25.3,231.3h-3.5 M25.1,218.8h-3.3 M25.3,225h-3.5 M25.1,240.6h-3.4
					 M25.1,234.4h-3.3 M25.1,253h-5.3h-0.7h-0.3 M25.1,259.3h-3.4 M25.1,249.9h-3.3 M25.1,246.8h-3.4 M25.1,243.7h-3.4 M25.1,256.1
					h-3.4 M25.1,265.5h-3.3 M25.1,262.4h-3.4 M25.1,268.6h-5.3h-0.7h-0.3 M25.1,284.2h-5.3h-0.7h-0.3 M25.1,278h-3.4 M25.1,281.1
					h-3.3 M25.1,271.8h-3.4 M25.1,274.9h-3.4 M25.1,287.3h-3.5 M25.1,290.4h-3.5 M25,299.8h-5.3h-0.5h-0.3 M25.1,315.4h-5.3h-0.7
					h-0.5 M25.1,296.7h-3.4 M25.1,293.5h-3.5 M25.1,302.9h-3.4 M25.2,306.1h-3.4 M25.1,312.3h-3.3 M25.2,309.2h-3.4"/>
			</g>
			<g>
				
					<path fill-rule="evenodd" clip-rule="evenodd" fill="none" stroke="#000000" stroke-linecap="round" stroke-linejoin="round" stroke-miterlimit="3" d="
					M15.4,18.8c0.4,0.3,0.6,0.7,0.6,1.2c0,0.1,0,0.2,0,0.3c-0.1,0.3-0.2,0.5-0.3,0.7c-0.1,0.1-0.1,0.1-0.3,0.2
					c-0.3,0.4-0.7,0.6-1.2,0.6c-0.4,0-0.8-0.2-1.2-0.6c-0.1-0.1-0.1-0.1-0.1-0.2c-0.2-0.2-0.3-0.4-0.3-0.7c0-0.1-0.1-0.2-0.1-0.3
					c0-0.5,0.2-0.9,0.5-1.2c0.4-0.3,0.8-0.5,1.2-0.5C14.7,18.3,15.1,18.5,15.4,18.8z M14.2,33.8c0.5,0,0.9,0.1,1.2,0.5
					c0.4,0.4,0.6,0.8,0.6,1.3c0,0.1,0,0.2,0,0.3c-0.1,0.3-0.3,0.6-0.6,1c-0.3,0.3-0.7,0.5-1.2,0.5c-0.4,0-0.8-0.2-1.2-0.5
					c-0.3-0.3-0.4-0.6-0.4-1c0-0.1-0.1-0.2-0.1-0.3c0-0.5,0.2-0.9,0.5-1.3C13.4,34,13.8,33.8,14.2,33.8z M14.2,49.4
					c0.5,0,0.9,0.2,1.2,0.5c0.4,0.3,0.6,0.8,0.6,1.3c0,0.1,0,0.2,0,0.3c-0.1,0.4-0.3,0.7-0.6,0.9c-0.3,0.4-0.7,0.5-1.2,0.5
					c-0.4,0-0.8-0.2-1.2-0.5c-0.3-0.2-0.4-0.5-0.4-0.9c0-0.1-0.1-0.1-0.1-0.3c0-0.5,0.2-0.9,0.5-1.3C13.4,49.6,13.8,49.4,14.2,49.4z
					 M14.2,64.9c0.5,0,0.9,0.1,1.2,0.4c0.4,0.4,0.6,0.8,0.6,1.2c0,0.1,0,0.3,0,0.4c-0.1,0.3-0.3,0.6-0.6,0.9
					c-0.3,0.3-0.7,0.5-1.2,0.5c-0.4,0-0.8-0.2-1.2-0.5c-0.3-0.3-0.4-0.6-0.4-0.9c0-0.1-0.1-0.2-0.1-0.4c0-0.4,0.2-0.8,0.5-1.2
					C13.4,65.1,13.8,64.9,14.2,64.9z M14.2,80.4c0.5,0,0.9,0.2,1.2,0.6c0.4,0.3,0.6,0.7,0.6,1.2c0,0.1,0,0.2,0,0.3
					c-0.1,0.4-0.3,0.7-0.6,1c-0.3,0.3-0.7,0.5-1.2,0.5c-0.4,0-0.8-0.2-1.2-0.5c-0.3-0.3-0.4-0.6-0.4-1c0-0.1-0.1-0.1-0.1-0.3
					c0-0.5,0.2-0.9,0.5-1.2C13.4,80.6,13.8,80.4,14.2,80.4z M14.3,96c0.5,0,0.9,0.1,1.2,0.5c0.4,0.4,0.5,0.8,0.5,1.3
					c0,0.1,0,0.2,0,0.3c-0.1,0.3-0.3,0.6-0.5,1c-0.3,0.3-0.7,0.4-1.2,0.4c-0.4,0-0.8-0.1-1.2-0.4c-0.3-0.3-0.4-0.6-0.5-1
					c0-0.1,0-0.2,0-0.3c0-0.5,0.2-0.9,0.5-1.3C13.4,96.1,13.8,96,14.3,96z M14.3,111.5c0.5,0,0.9,0.2,1.2,0.5
					c0.4,0.3,0.5,0.7,0.5,1.2c0,0.1,0,0.2,0,0.3c-0.1,0.4-0.3,0.7-0.5,0.9c-0.3,0.3-0.7,0.5-1.2,0.5c-0.4,0-0.8-0.2-1.2-0.5
					c-0.3-0.2-0.4-0.5-0.5-0.9c0-0.1,0-0.2,0-0.3c0-0.5,0.2-0.9,0.5-1.2C13.4,111.7,13.8,111.5,14.3,111.5z M14.3,127
					c0.5,0,0.9,0.1,1.2,0.4c0.4,0.4,0.5,0.8,0.5,1.2c0,0.1,0,0.2,0,0.3c-0.1,0.3-0.3,0.6-0.5,0.9c-0.3,0.4-0.7,0.6-1.2,0.6
					c-0.4,0-0.8-0.2-1.2-0.6c-0.3-0.3-0.4-0.6-0.5-0.9c0-0.1,0-0.2,0-0.3c0-0.4,0.2-0.8,0.5-1.2C13.4,127.2,13.8,127,14.3,127z
					 M14.3,142.5c0.5,0,0.9,0.2,1.2,0.5c0.4,0.3,0.5,0.8,0.5,1.3c0,0.1,0,0.2,0,0.3c-0.1,0.4-0.3,0.7-0.5,0.9
					c-0.3,0.3-0.7,0.5-1.2,0.5c-0.4,0-0.8-0.1-1.2-0.5c-0.3-0.3-0.4-0.6-0.5-0.9c0-0.1,0-0.2,0-0.3c0-0.5,0.2-0.9,0.5-1.3
					C13.4,142.7,13.8,142.5,14.3,142.5z M14.3,158.1c0.5,0,0.9,0.2,1.2,0.5c0.4,0.4,0.5,0.8,0.5,1.3c0,0.1,0,0.2,0,0.3
					c-0.1,0.3-0.3,0.6-0.5,0.8c-0.3,0.4-0.7,0.6-1.2,0.6c-0.4,0-0.8-0.2-1.2-0.6c-0.3-0.2-0.4-0.5-0.5-0.8c0-0.1,0-0.2,0-0.3
					c0-0.5,0.2-0.9,0.5-1.3C13.4,158.2,13.8,158.1,14.3,158.1z M15.5,174.1c0.4,0.3,0.5,0.7,0.5,1.2c0,0.1,0,0.2,0,0.3
					c-0.1,0.3-0.3,0.6-0.5,0.9c-0.3,0.3-0.7,0.5-1.2,0.5c-0.4,0-0.8-0.2-1.2-0.5c-0.3-0.3-0.4-0.6-0.5-0.9c0-0.1,0-0.2,0-0.3
					c0-0.5,0.2-0.9,0.5-1.2c0.4-0.3,0.8-0.5,1.2-0.5C14.8,173.6,15.1,173.8,15.5,174.1z M14.3,189.1c0.5,0,0.9,0.2,1.2,0.5
					c0.4,0.4,0.5,0.8,0.5,1.3c0,0.1,0,0.2,0,0.3c-0.1,0.4-0.3,0.7-0.5,1c-0.2,0.2-0.4,0.4-0.6,0.4c-0.1,0.1-0.3,0.1-0.6,0.1
					c-0.2,0-0.3,0-0.5-0.1c-0.3-0.1-0.5-0.2-0.7-0.4c-0.3-0.3-0.4-0.6-0.5-1c0-0.1,0-0.2,0-0.3c0-0.5,0.2-0.9,0.5-1.3
					C13.4,189.2,13.8,189.1,14.3,189.1z M14.3,204.6c0.5,0,0.9,0.2,1.2,0.5c0.4,0.3,0.5,0.8,0.5,1.3c0,0.1,0,0.2,0,0.3
					c-0.1,0.3-0.3,0.6-0.5,0.9c-0.3,0.3-0.7,0.5-1.2,0.5c-0.4,0-0.8-0.2-1.2-0.5c-0.3-0.3-0.4-0.6-0.5-0.9c0-0.1,0-0.1,0-0.3
					c0-0.5,0.2-0.9,0.5-1.3C13.4,204.8,13.8,204.6,14.3,204.6z M14.3,220.2c0.5,0,0.9,0.2,1.2,0.5c0.4,0.4,0.5,0.8,0.5,1.2
					c0,0.1,0,0.2,0,0.3c-0.1,0.4-0.3,0.7-0.5,0.9c-0.3,0.4-0.7,0.5-1.2,0.5c-0.4,0-0.8-0.2-1.2-0.5c-0.3-0.2-0.4-0.5-0.5-0.9
					c0-0.1,0-0.2,0-0.3c0-0.4,0.2-0.8,0.5-1.2C13.4,220.3,13.8,220.2,14.3,220.2z M12.6,237.4c0-0.5,0.2-0.9,0.5-1.2
					c0.4-0.4,0.8-0.5,1.2-0.5c0.5,0,0.9,0.2,1.2,0.5c0.4,0.3,0.5,0.7,0.5,1.2c0,0.1,0,0.2,0,0.3c-0.1,0.3-0.3,0.7-0.5,1
					c-0.3,0.3-0.7,0.5-1.2,0.5c-0.4,0-0.8-0.2-1.2-0.5c-0.3-0.3-0.4-0.6-0.5-1C12.6,237.6,12.6,237.5,12.6,237.4z M12.6,253.2
					c0-0.1,0-0.1,0-0.3c0-0.5,0.2-0.9,0.5-1.3c0.4-0.3,0.8-0.4,1.2-0.4c0.5,0,0.9,0.1,1.2,0.4c0.4,0.4,0.5,0.8,0.5,1.3
					c0,0.1,0,0.2,0,0.3c-0.1,0.4-0.3,0.7-0.5,1c-0.3,0.3-0.7,0.5-1.2,0.5c-0.4,0-0.8-0.2-1.2-0.5C12.8,253.9,12.6,253.6,12.6,253.2z
					 M13.1,267.2c0.4-0.3,0.8-0.4,1.2-0.4c0.5,0,0.9,0.1,1.2,0.4c0.4,0.4,0.5,0.8,0.5,1.3c0,0.1,0,0.2,0,0.3
					c-0.1,0.3-0.3,0.6-0.5,0.9c-0.3,0.3-0.7,0.5-1.2,0.5c-0.4,0-0.8-0.2-1.2-0.5c-0.3-0.3-0.4-0.6-0.5-0.9c0-0.1,0-0.2,0-0.3
					C12.6,268,12.7,267.6,13.1,267.2z M12.6,283.9c0-0.5,0.2-0.9,0.5-1.2c0.4-0.3,0.8-0.5,1.2-0.5c0.5,0,0.9,0.1,1.2,0.5
					c0.4,0.3,0.5,0.7,0.5,1.2c0,0.1,0,0.2,0,0.3c-0.1,0.4-0.3,0.7-0.5,1c-0.3,0.4-0.7,0.5-1.2,0.5c-0.4,0-0.8-0.2-1.2-0.5
					c-0.3-0.3-0.4-0.6-0.5-1C12.6,284.1,12.6,284,12.6,283.9z M12.6,299.5c0-0.5,0.2-0.9,0.5-1.2c0.4-0.3,0.8-0.5,1.2-0.5
					c0.5,0,0.9,0.2,1.2,0.5c0.4,0.3,0.5,0.7,0.5,1.2c0,0.1,0,0.2,0,0.3c-0.1,0.3-0.3,0.6-0.5,0.9c-0.3,0.3-0.7,0.5-1.2,0.5
					c-0.4,0-0.8-0.2-1.2-0.5c-0.3-0.3-0.4-0.6-0.5-0.9C12.6,299.7,12.6,299.6,12.6,299.5z"/>
			</g>
		</g>
		<g>
			<g>
				<linearGradient id="SVGID_3_" gradientUnits="userSpaceOnUse" x1="35.2896" y1="1.5313" x2="19.5974" y2="319.4362">
					<stop  offset="0" style="stop-color:#A2BDD2"/>
					<stop  offset="0.5529" style="stop-color:#FFFFFF"/>
					<stop  offset="1" style="stop-color:#9E949D"/>
				</linearGradient>
				<path fill-rule="evenodd" clip-rule="evenodd" fill="url(#SVGID_3_)" d="M27,1.9c0-0.1,0-0.2,0.1-0.3c0.1-0.1,0.2-0.1,0.3-0.1
					c0.1,0,0.2,0,0.3,0.1c0.1,0.1,0.1,0.2,0.1,0.3l0.1,317h-0.8L27,1.9z"/>
				<linearGradient id="SVGID_4_" gradientUnits="userSpaceOnUse" x1="8.6348" y1="1.4727" x2="-7.0574" y2="319.3776">
					<stop  offset="0" style="stop-color:#A2BDD2"/>
					<stop  offset="0.5529" style="stop-color:#FFFFFF"/>
					<stop  offset="1" style="stop-color:#9E949D"/>
				</linearGradient>
				<path fill-rule="evenodd" clip-rule="evenodd" fill="url(#SVGID_4_)" d="M0.4,1.5c0-0.1,0-0.2,0.1-0.4c0.1-0.1,0.1-0.1,0.3-0.1
					s0.2,0,0.3,0.1c0.1,0.1,0.1,0.3,0.1,0.4l0.1,317.2c0,0,0,0.1,0,0.1H0.5c0,0,0-0.1,0-0.1L0.4,1.5z"/>
			</g>
		</g>
	</g>
</g>
</svg>
